<?xml version="1.0" encoding="utf-8"?>
<!-- Generator: Adobe Illustrator 28.2.0, SVG Export Plug-In . SVG Version: 6.00 Build 0)  -->
<svg version="1.1" id="Layer_1" xmlns="http://www.w3.org/2000/svg" xmlns:xlink="http://www.w3.org/1999/xlink" x="0px" y="0px"
	 viewBox="0 0 1920 1080" style="enable-background:new 0 0 1920 1080;" xml:space="preserve">
<style type="text/css">
	.st0{fill:#FFFFFF;}
	.st1{opacity:0.96;fill:#FFFFFF;}
</style>
<g>
	<g>
		<path class="st0" d="M346.76,486.69c-5.32,8.1-6.2,18.29-2.47,27.24c13.03,31.24,33.47,61.69,53.19,106.11
			c28.64-41.51,47.25-81.57,47.25-128.24c0-44.91-20.07-85.12-51.73-112.18c-1.59,14.41-6.57,49.43-18.6,66.52
			C366.67,457.1,355.82,472.89,346.76,486.69z"/>
		<path class="st0" d="M250.2,516.82c-26.59-11.51-71.29-26.4-100.14-35.67c-0.25,3.52-0.39,7.06-0.39,10.64
			c0,44.18,20.15,89.01,45.55,127.99l0.37-0.07c15.37-2.73,28.69-12.29,36.24-25.94c13.09-23.67,21.91-40.02,27.58-50.72
			C264.61,533.28,260.36,521.21,250.2,516.82z"/>
		<path class="st0" d="M311.86,556.87c-8.14-7.49-20.89-6.47-27.72,2.24c-7.47,9.53-18.83,24.23-35.13,45.82
			c-9.41,12.45-15.21,29.36-8.97,43.66c10.42,23.88,57.16,87.15,57.16,87.15s38.84-33.77,76.66-82.28l70.87,54.32
			C444.73,707.77,330.55,574.06,311.86,556.87z"/>
		<path class="st0" d="M276.26,469.73c9.69-0.23,18.64-5.17,23.88-13.32c8.92-13.88,18.66-30.39,25.83-41.74
			c11.65-18.44,47.65-33.81,61.83-39.3c-25-19.48-56.44-31.09-90.59-31.09c-66.37,0-122.49,43.83-141.02,104.13l-84.85,20.76
			C71.33,469.15,245.74,470.44,276.26,469.73z"/>
	</g>
	<g>
		<path class="st1" d="M539.32,493.4h-40v-32h111v32h-39v134h-32V493.4z"/>
		<path class="st1" d="M621.32,501.4h26.08l2.32,22h0.8c7.9-16.81,19.77-25.04,30.84-25.04c6.2,0,9.81,0.93,12.95,2.54l-5.36,32.19
			c-3.86-1.1-7.05-2.03-11.71-2.03c-8.18,0-18.12,6.12-23.91,23.28v73.06h-32V501.4z"/>
		<path class="st1" d="M696.26,592.2c0-26.74,18.35-41.21,61.63-46.51c-0.65-11.1-5.42-18.35-17.3-18.35
			c-9.18,0-18.34,4.48-28.96,11.46l-11.53-24.69c13.89-9.84,29.54-16.7,46.74-16.7c27.98,0,43.47,18.54,43.47,57.42v72.55h-26.45
			l-2.34-13h-0.81c-9.21,9.39-19.54,16.07-31.84,16.07C708.93,630.47,696.26,613.58,696.26,592.2z M758.32,590.61v-22.04
			c-22.92,3.59-30.4,11.19-30.4,20.72c0,8.13,4.82,12.11,12.48,12.11C747.7,601.41,752.6,597.22,758.32,590.61z"/>
		<path class="st1" d="M806.16,501.4h32.4l14.11,59.35c2.78,12.49,5.63,25.49,8.41,38.65h0.87c2.78-13.15,5.63-26.15,8.41-38.65
			l14.11-59.35h30.87l-35.45,126h-37.12L806.16,501.4z"/>
		<path class="st1" d="M924.26,563.5c0-40.93,25.18-66.18,51.32-66.18c30.99,0,46.34,26.12,46.34,60.55
			c0,6.73-0.72,13.47-1.34,16.52h-65.08c2.89,18.3,13.7,26.7,28.22,26.7c8.23,0,15.63-2.9,23.53-8.25l10.66,22.54
			c-11.15,8.95-25.7,14.21-38.6,14.21C948.28,629.59,924.26,605.27,924.26,563.5z M994.37,550.4c0-13.87-5.21-23.86-18.08-23.86
			c-10.19,0-18.98,7.92-21.17,23.86H994.37z"/>
		<path class="st1" d="M1044.32,588.35V449.4h32v140.47c0,8.02,3.18,10.56,5.79,10.56c1.23,0,2.1,0,3.92-0.51l3.82,27.56
			c-3.54,1.77-8.79,3.11-16.06,3.11C1051.82,630.6,1044.32,613.87,1044.32,588.35z"/>
		<path class="st1" d="M1181.32,493.4h-39v-32h111v32h-40v134h-32V493.4z"/>
		<path class="st1" d="M1252.26,592.2c0-26.74,18.35-41.21,61.63-46.51c-0.65-11.1-5.42-18.35-17.3-18.35
			c-9.18,0-18.34,4.48-28.96,11.46l-11.53-24.69c13.89-9.84,29.54-16.7,46.74-16.7c27.98,0,43.47,18.54,43.47,57.42v72.55h-26.45
			l-2.34-13h-0.81c-9.21,9.39-19.54,16.07-31.84,16.07C1264.93,630.47,1252.26,613.58,1252.26,592.2z M1314.32,590.61v-22.04
			c-22.92,3.59-30.4,11.19-30.4,20.72c0,8.13,4.82,12.11,12.48,12.11C1303.7,601.41,1308.6,597.22,1314.32,590.61z"/>
		<path class="st1" d="M1374.32,588.35V449.4h32v140.47c0,8.02,3.18,10.56,5.79,10.56c1.23,0,2.1,0,3.92-0.51l3.82,27.56
			c-3.54,1.77-8.79,3.11-16.06,3.11C1381.82,630.6,1374.32,613.87,1374.32,588.35z"/>
		<path class="st1" d="M1436.32,449.4h32v103h0.82l35.15-51h34.4l-38.06,51.93l40.94,74.07h-34.39l-24.86-49.16l-14.01,18.14v31.03
			h-32V449.4z"/>
		<path class="st1" d="M1604.32,461.4h48.45c29.38,0,52.2,9.47,52.2,41.17c0,14.89-7.1,30.74-18.65,35.84v1.02
			c14.46,4.41,25.62,16.9,25.62,39.07c0,33.77-24.35,48.9-55.14,48.9h-52.49V461.4z M1650.24,527.4c15.48,0,22.33-7.59,22.33-19.49
			c0-12.61-7.23-17.51-22.1-17.51h-15.15v37H1650.24z M1653.46,598.4c17.7,0,26.84-7.3,26.84-22.45c0-14.6-8.99-20.55-26.84-20.55
			h-18.14v43H1653.46z"/>
		<path class="st1" d="M1736.32,461.4h40.47c43.72,0,71.89,25.23,71.89,82.28s-28.17,83.72-70.08,83.72h-42.28V461.4z
			 M1774.43,596.4c24.15,0,40.47-13.73,40.47-53.22s-16.32-51.78-40.47-51.78h-6.11v105H1774.43z"/>
	</g>
</g>
</svg>
